# xmcd CD database file
#
# Track frame offsets:
#	150
#	13475
#	26356
#	39818
#	54372
#	69532
#	80818
#	93970
#	105257
#	115842
#	126505
#	138632
#
# Disc length: 2038 seconds
#
# Revision: 0
# Processed by: cddbd v1.4PL0 Copyright (c) Steve Scherf et al.
# Submitted via: CDex 1.51
#
DISCID=9c07f40c
DTITLE=Cuco Sanchez - Viva Mexico
DYEAR=1900
DGENRE=Español
TTITLE0=Anillo de compromiso
TTITLE1=Fallaste corazon
TTITLE2=Amemonos
TTITLE3=Cama de piedra
TTITLE4=Anoche estuve llorando
TTITLE5=Arrieros somos
TTITLE6=Gritenme piedras del campo
TTITLE7=Se me hizo facil
TTITLE8=Que manera de perder}
TTITLE9=Te parto el alma
TTITLE10=Guitarras, lloren guitarras
TTITLE11=No soy monedita de oro
EXTD=
EXTT0=
EXTT1=
EXTT2=
EXTT3=
EXTT4=
EXTT5=
EXTT6=
EXTT7=
EXTT8=
EXTT9=
EXTT10=
EXTT11=
PLAYORDER=
